<?xml version="1.0" encoding="UTF-8"?>
<svg version="1.1" xmlns="http://www.w3.org/2000/svg" width="1872" height="1414">
<path d="M0 0 C4.45675054 2.21133587 8.62662137 4.8223473 12.8125 7.5 C14.04935302 8.27341341 15.28733352 9.0450263 16.52636719 9.81494141 C19.09253997 11.41158601 21.65373739 13.01577791 24.21142578 14.62597656 C30.01786234 18.27421454 35.88482983 21.82213306 41.75 25.375 C42.89966014 26.07375617 44.04923637 26.77265041 45.19873047 27.47167969 C54.92363392 33.37942344 64.71158249 39.17898708 74.50454712 44.97296143 C83.53737036 50.31961803 92.51407465 55.74151973 101.41943359 61.29882812 C107.92539312 65.35335953 114.48364349 69.31497345 121.0625 73.25 C129.99781155 78.59460166 138.91522461 83.96739443 147.8125 89.375 C148.39468292 89.72880737 148.97686584 90.08261475 149.57669067 90.44714355 C152.53525185 92.24529555 155.49352555 94.0439198 158.45166016 95.84277344 C162.55432067 98.33737366 166.65840085 100.82963327 170.76318359 103.32073975 C173.65649034 105.0766839 176.5490799 106.83378259 179.43994141 108.59375 C184.92805064 111.93319803 190.42338849 115.25898823 195.94284058 118.54644775 C198.56277168 120.1078462 201.17886745 121.67560672 203.79467773 123.24389648 C205.04830251 123.99303147 206.30381941 124.73900989 207.5612793 125.48168945 C209.29944695 126.5085447 211.03076621 127.54696599 212.76171875 128.5859375 C213.75131592 129.1742334 214.74091309 129.7625293 215.76049805 130.36865234 C218 132 218 132 219 135 C218.17725586 135.48654053 217.35451172 135.97308105 216.50683594 136.47436523 C201.79218826 145.17925516 187.09518732 153.90845446 172.5 162.8125 C163.1850513 168.4928913 153.81539969 174.06754802 144.37719727 179.54101562 C135.69849328 184.57780834 127.06392789 189.68689577 118.4375 194.8125 C117.77617065 195.20524109 117.11484131 195.59798218 116.43347168 196.00262451 C109.44218204 200.15516025 102.45885683 204.32059353 95.48828125 208.5078125 C87.92397084 213.05158987 80.33912324 217.56032157 72.75 222.0625 C71.3557785 222.89002877 69.96157308 223.71758463 68.56738281 224.54516602 C61.33650428 228.83680613 54.10354187 233.12491038 46.86726379 237.40744019 C42.9757523 239.71070353 39.08713662 242.01880219 35.19921875 244.328125 C31.14989476 246.73211551 27.08981461 249.11606284 23.01953125 251.484375 C21.20048745 252.55202645 19.38147509 253.61973148 17.5625 254.6875 C16.74555664 255.15663818 15.92861328 255.62577637 15.08691406 256.10913086 C10.18535305 259.00210596 6.61126855 261.77746291 4 267 C3.88159887 268.57206643 3.82296967 270.14883269 3.79467773 271.72509766 C3.77473251 272.70596344 3.75478729 273.68682922 3.73423767 274.69741821 C3.71752518 275.75891083 3.70081268 276.82040344 3.68359375 277.9140625 C3.66281265 278.99883881 3.64203156 280.08361511 3.62062073 281.20126343 C3.55509366 284.67577621 3.49622553 288.15036624 3.4375 291.625 C3.39431779 293.97657058 3.3507036 296.32813326 3.30664062 298.6796875 C3.19940907 304.4530427 3.09764856 310.2264752 3 316 C-1.6331024 314.62947952 -5.46124951 312.72562155 -9.6015625 310.24609375 C-10.22678802 309.87368057 -10.85201355 309.5012674 -11.4961853 309.11756897 C-13.54256923 307.89653986 -15.58379275 306.66716007 -17.625 305.4375 C-19.06615567 304.57510195 -20.50756566 303.71312877 -21.94921875 302.8515625 C-32.13255429 296.75761465 -42.27579978 290.59749181 -52.40991211 284.42211914 C-62.63858844 278.1937959 -72.93129736 272.07552911 -83.23852539 265.97827148 C-89.59798944 262.21504623 -95.94798197 258.43858037 -102.265625 254.60546875 C-103.40730662 253.91422308 -104.54898953 253.22297954 -105.69067383 252.53173828 C-107.7791634 251.26504478 -109.865154 249.99421695 -111.94799805 248.71826172 C-123.18344982 241.45207022 -123.18344982 241.45207022 -136 240 C-139.81832649 242.68314835 -140.75746783 245.61288954 -142 250 C-143.87066668 265.15080291 -143.19981448 280.751393 -143.23828125 295.984375 C-143.24234193 297.3675259 -143.24645917 298.75067664 -143.25063133 300.13382721 C-143.26957094 306.62591958 -143.28383686 313.11800125 -143.2922433 319.61011577 C-143.30204013 327.04643519 -143.32847035 334.48245896 -143.36874419 341.91867423 C-143.39902757 347.71280512 -143.41372278 353.50685155 -143.41702431 359.30105996 C-143.41935624 362.74258765 -143.42807455 366.18379529 -143.45348549 369.62523651 C-143.47795767 373.46231072 -143.47689799 377.29861306 -143.4699707 381.13574219 C-143.48278076 382.24983963 -143.49559082 383.36393707 -143.50878906 384.51179504 C-143.44022479 394.99715679 -141.34100152 405.56649399 -134.34765625 413.703125 C-128.96838844 418.96603594 -123.02572007 423.50727525 -117 428 C-116.33145996 428.49935059 -115.66291992 428.99870117 -114.97412109 429.51318359 C-104.67553807 437.13468137 -93.91561887 443.79399814 -82.88330078 450.28955078 C-78.02883199 453.16934827 -73.2122967 456.11161511 -68.39224243 459.04849243 C-57.325383 465.78981876 -46.22633624 472.47616486 -35.10824585 479.13259888 C-28.36020826 483.17310866 -21.61814236 487.2224786 -14.90234375 491.31640625 C-14.32517609 491.66822968 -13.74800842 492.0200531 -13.15335083 492.38253784 C-11.99300848 493.08996457 -10.83267926 493.79741283 -9.67236328 494.50488281 C0.92857393 500.96748625 11.59396321 507.30639321 22.31900024 513.5607605 C32.52570094 519.51568352 42.65283189 525.59193839 52.73535156 531.75463867 C58.38283797 535.20505585 64.04340344 538.6280924 69.75 541.98046875 C85.69146562 551.36044748 100.61112853 561.15847233 114 574 C114.49564453 574.45922852 114.99128906 574.91845703 115.50195312 575.39160156 C144.53295174 602.32376127 156.0949339 639.36118132 157.80294228 678.13172913 C158.21358848 689.08749707 158.14775584 700.05195792 158.14526367 711.01367188 C158.14826259 713.67379386 158.15163955 716.33391309 158.15544128 718.99403381 C158.16366954 725.42027749 158.16649247 731.84651199 158.16705366 738.27276051 C158.16753224 743.50332907 158.16960381 748.73389466 158.17275429 753.96446228 C158.18153671 768.85213282 158.18617704 783.73979621 158.18542381 798.62746936 C158.18536388 799.82580025 158.18536388 799.82580025 158.18530273 801.04833984 C158.18526185 801.84822144 158.18522097 802.64810303 158.18517885 803.47222346 C158.18477227 816.43900499 158.19435121 829.4057575 158.2084411 842.37253064 C158.22285377 855.74356916 158.22970872 869.11459357 158.22884732 882.48564005 C158.22851721 889.96984494 158.23118252 897.45401934 158.24202538 904.93821716 C158.25119476 911.30702143 158.25325312 917.67578134 158.24651595 924.0445894 C158.24328388 927.28361768 158.24419103 930.52254488 158.2518692 933.76156807 C158.38077034 991.95011404 158.38077034 991.95011404 139.27734375 1011.81640625 C127.10613313 1023.48657217 112.52338541 1027.51689615 95.92578125 1027.25 C69.50419214 1025.56743114 48.42863393 1012.2296331 26.5096283 998.80163574 C18.05269069 993.62182312 9.53635777 988.54761901 1 983.5 C-10.18253336 976.88313024 -21.31276115 970.18738108 -32.40649414 963.42285156 C-41.37496525 957.96058337 -50.39941087 952.59611398 -59.4375 947.25 C-69.27476614 941.43049547 -79.06172349 935.54634566 -88.76000977 929.49682617 C-94.43133765 925.96093204 -100.13822298 922.49114487 -105.875 919.0625 C-121.35488369 909.8085377 -136.75571229 900.42644338 -152.0703125 890.90136719 C-156.67223959 888.04338306 -161.28982901 885.21535653 -165.93359375 882.42578125 C-180.08486964 873.9203274 -193.60406355 865.52022973 -205.671875 854.17578125 C-207.48568315 852.48066189 -209.3022971 850.90753465 -211.25 849.375 C-235.45598536 828.46983083 -250.23352918 794.00023786 -253.23199296 762.56807446 C-253.58167223 756.92879684 -253.57470144 751.29076486 -253.56176758 745.64282227 C-253.57217697 743.80563359 -253.58429503 741.96845395 -253.59796143 740.13128662 C-253.62969406 735.21282142 -253.63758806 730.29459444 -253.64043641 725.37603879 C-253.64735827 720.20407755 -253.6759516 715.03223109 -253.701828 709.8603363 C-253.74215689 701.19718052 -253.76812921 692.53408336 -253.78393555 683.87084961 C-253.80427489 672.75370498 -253.84752181 661.6367735 -253.89822865 650.51973057 C-253.94188954 640.93510611 -253.97647454 631.35045235 -254.00889373 621.76578403 C-254.01952396 618.69351408 -254.03114496 615.62124885 -254.04279518 612.54898262 C-254.06037065 607.7315718 -254.07231895 602.91417734 -254.07987976 598.09674072 C-254.08339006 596.32984426 -254.08861089 594.56295025 -254.09566307 592.79606438 C-254.10493537 590.38600156 -254.10790629 587.97601166 -254.10920715 585.56593323 C-254.11328246 584.8665325 -254.11735777 584.16713177 -254.12155658 583.44653708 C-254.11613646 579.83655036 -253.85417938 576.51099208 -253 573 C-248.89662151 574.5001856 -245.2290771 576.51316556 -241.49609375 578.75390625 C-240.86881882 579.12668198 -240.24154388 579.4994577 -239.59526062 579.88352966 C-237.54045464 581.10617221 -235.48890547 582.33416183 -233.4375 583.5625 C-232.0018939 584.41879339 -230.56618291 585.27491096 -229.13037109 586.13085938 C-211.24401316 596.80565211 -193.46074299 607.65008597 -175.69384766 618.5222168 C-171.97085937 620.79964757 -168.24241295 623.06705223 -164.5 625.3125 C-163.75492187 625.76238281 -163.00984375 626.21226562 -162.2421875 626.67578125 C-160.61627357 627.63603356 -158.97313931 628.56731808 -157.3203125 629.48046875 C-151.56530684 632.72495745 -147.44552382 635.30447639 -145.41836262 641.88934422 C-144.96182392 644.19259981 -144.87236375 646.29745329 -144.86869812 648.64549255 C-144.86468994 649.57458939 -144.86068176 650.50368622 -144.85655212 651.4609375 C-144.85708084 652.47341553 -144.85760956 653.48589355 -144.8581543 654.52905273 C-144.85467987 655.60115494 -144.85120544 656.67325714 -144.84762573 657.77784729 C-144.84027223 660.10773131 -144.83492468 662.43762232 -144.83133507 664.76751518 C-144.8241601 668.46380634 -144.80848338 672.15996549 -144.78999329 675.85621643 C-144.73758835 686.36661691 -144.689601 696.87692745 -144.67407227 707.38745117 C-144.66394934 713.81777624 -144.63451097 720.24777101 -144.59275246 726.67796516 C-144.58049446 729.12056026 -144.57531161 731.56320213 -144.57755089 734.00582695 C-144.59018942 752.30013161 -143.94290556 768.52048347 -130.8125 782.6875 C-123.05427895 789.82935115 -113.17625682 794.69326299 -104.0625 799.875 C-93.52717584 805.90956948 -83.1133682 812.12228162 -72.75073242 818.44848633 C-71.57081372 819.16880374 -70.39088201 819.88909985 -69.2109375 820.609375 C-68.32904503 821.14784309 -68.32904503 821.14784309 -67.42933655 821.69718933 C-61.23331458 825.47584291 -55.00529323 829.20059357 -48.77667236 832.9251709 C-37.70824811 839.5448396 -26.68844881 846.23652857 -15.71557617 853.01391602 C-6.43090488 858.74619134 2.89161937 864.41434722 12.22509766 870.06665039 C13.31226074 870.72528076 14.39942383 871.38391113 15.51953125 872.0625 C17.11462524 873.02542969 17.11462524 873.02542969 18.74194336 874.0078125 C21.01860801 875.39991318 23.27699744 876.8065467 25.52563477 878.2421875 C26.1062114 878.60948975 26.68678802 878.97679199 27.28495789 879.35522461 C28.89414826 880.37534934 30.49780064 881.40419492 32.10107422 882.43359375 C36.1987877 884.64775323 39.3821797 885 44 885 C46.66571247 881.06321543 46.28430051 876.79749831 46.26742554 872.23422241 C46.27422221 870.89210707 46.27422221 870.89210707 46.28115618 869.52287829 C46.29383793 866.51829246 46.29217735 863.51388702 46.29052734 860.50927734 C46.29651039 858.35745001 46.30331541 856.20562483 46.31088257 854.05380249 C46.32857633 848.20230342 46.33323948 842.35086282 46.33451414 836.49933958 C46.3364123 831.61391984 46.34376919 826.72851373 46.35085833 821.84309924 C46.36715405 810.31319846 46.37202635 798.78332893 46.37060547 787.25341797 C46.36940491 775.36557436 46.39048702 763.47791257 46.4220928 751.59011495 C46.44826461 741.38188587 46.45897232 731.17371611 46.45769465 720.96545374 C46.45718512 714.8696184 46.46286292 708.77394445 46.48405075 702.67814255 C46.50344722 696.94073405 46.50354769 691.20364061 46.48901749 685.46622086 C46.4869298 683.36441334 46.49162786 681.26258604 46.5037384 679.16081238 C46.58001055 665.00264249 46.23863986 654.23628797 35.83544922 643.59570312 C32.91339917 640.92072154 29.97249656 638.86784446 26.625 636.75390625 C26.01729767 636.36940308 25.40959534 635.9848999 24.78347778 635.58874512 C18.54897807 631.66821297 12.21938747 627.90786063 5.87158203 624.17456055 C2.36628212 622.11244293 -1.13334676 620.04074848 -4.6328125 617.96875 C-5.69474823 617.34015076 -5.69474823 617.34015076 -6.77813721 616.69885254 C-13.55051209 612.68433758 -20.27882559 608.59948089 -27 604.5 C-36.95782206 598.42771391 -46.96326354 592.44089993 -57 586.5 C-67.11575766 580.51098893 -77.2064085 574.48434996 -87.25 568.375 C-87.8217395 568.02725525 -88.393479 567.6795105 -88.98254395 567.32122803 C-93.55961348 564.5364429 -98.13411982 561.74745795 -102.70849609 558.95825195 C-106.72111162 556.51182869 -110.73502518 554.06754923 -114.75 551.625 C-115.31875854 551.27874573 -115.88751709 550.93249146 -116.47351074 550.57574463 C-124.72562715 545.55460481 -133.02161356 540.61217533 -141.34155273 535.7043457 C-183.7073051 510.70955078 -183.7073051 510.70955078 -201.734375 494.078125 C-203.8017788 492.18181669 -205.91750093 490.36970394 -208.0625 488.5625 C-232.7159713 466.9167522 -250.26334258 433.81861612 -253 401 C-253.19775618 395.8618091 -253.25749729 390.72322885 -253.31640625 385.58203125 C-253.33719916 384.03424189 -253.35828925 382.4864565 -253.37965393 380.93867493 C-253.43566651 376.76647338 -253.48518854 372.59422013 -253.53263092 368.42191315 C-253.56263889 365.80036653 -253.59400297 363.17883906 -253.62567139 360.55731201 C-254.04297579 325.70771004 -254.21340084 290.86174932 -254.01115417 256.01015472 C-253.99998306 253.99694708 -253.99030841 251.98373744 -253.9810791 249.97052002 C-253.94474146 242.23506477 -253.88457892 234.5003038 -253.79046631 226.76531982 C-253.76416321 224.43973703 -253.74354302 222.11408057 -253.72955322 219.78839111 C-253.51810431 188.2918748 -249.72066307 153.71924924 -227.0546875 129.9609375 C-220.21833965 123.43651427 -212.06885303 118.80895199 -204 114 C-202.89672363 113.3409668 -201.79344727 112.68193359 -200.65673828 112.00292969 C-193.25902509 107.58698671 -185.8482874 103.19318869 -178.43295288 98.80691528 C-171.51590917 94.71511947 -164.60605018 90.61127882 -157.6968689 86.50622559 C-143.90950426 78.31542998 -130.11410708 70.13821361 -116.31640625 61.96484375 C-112.90855266 59.94582095 -109.5010853 57.92614728 -106.09375 55.90625 C-92.95823693 48.11967253 -79.81764804 40.34177264 -66.66943359 32.57666016 C-63.03205585 30.42829858 -59.39512625 28.27917914 -55.75830078 26.12988281 C-53.93000581 25.0495414 -52.10155706 23.96946019 -50.27294922 22.88964844 C-45.54965084 20.1001061 -40.82926625 17.30579735 -36.11328125 14.50390625 C-35.14197266 13.92769531 -34.17066406 13.35148438 -33.16992188 12.7578125 C-31.33565559 11.66953968 -29.50224597 10.57982095 -27.66992188 9.48828125 C-25.978868 8.48579247 -24.28245124 7.4922901 -22.58056641 6.50830078 C-20.77775648 5.45458652 -18.99473814 4.36659826 -17.22802734 3.25341797 C-11.1983296 -0.38325985 -6.83969262 -2.54010073 0 0 Z " fill="#BD7834" transform="translate(645,179)"/>
<path d="M0 0 C21.46412361 -0.53346506 42.49964535 5.46390945 58.484375 20.12109375 C79.31028355 39.98639767 84.87461533 71.54273148 85.6703434 99.1751194 C85.77139779 104.60342465 85.76674396 110.03116376 85.7590332 115.46020508 C85.76339315 117.52221356 85.76858051 119.58422044 85.77452087 121.64622498 C85.78777044 127.18253487 85.78850644 132.71877595 85.78595757 138.25509858 C85.78488027 142.89062911 85.78978943 147.52614613 85.794563 152.16167372 C85.80560505 163.08997073 85.80612274 174.01823334 85.80004883 184.9465332 C85.79398501 196.21046899 85.806393 207.47428062 85.8276189 218.73819524 C85.84522006 228.43626443 85.85123942 238.13429399 85.84798115 247.83237857 C85.84616904 253.61372342 85.84879939 259.39497926 85.86269569 265.17630959 C85.87524853 270.59951207 85.87335411 276.02251936 85.86028481 281.44571877 C85.85791561 283.43472357 85.86066597 285.42374204 85.86890793 287.41273117 C85.87934582 290.12705104 85.87129919 292.8407119 85.8585968 295.55500793 C85.86597109 296.34166975 85.87334537 297.12833157 85.88094312 297.93883163 C85.83360137 302.74584478 85.02300963 306.03325284 82.484375 310.12109375 C80.48071289 311.95703125 80.48071289 311.95703125 78.14453125 313.49609375 C77.2539502 314.08390625 76.36336914 314.67171875 75.44580078 315.27734375 C70.60381894 318.29190656 65.70770241 321.2047014 60.76806641 324.05541992 C57.55218518 325.9117174 54.34497751 327.78291366 51.13671875 329.65234375 C50.48766571 330.03007935 49.83861267 330.40781494 49.16989136 330.79699707 C43.07421726 334.34903475 37.02527636 337.97676116 30.984375 341.62109375 C22.35571044 346.81759317 13.70010135 351.96580535 5.01391602 357.06542969 C3.76764968 357.79711791 2.52170556 358.52935531 1.27612305 359.26220703 C-20.58876685 372.12109375 -20.58876685 372.12109375 -23.515625 372.12109375 C-23.51801335 370.92857026 -23.52040171 369.73604677 -23.52286243 368.50738621 C-23.5802554 340.18227574 -23.65300948 311.85723309 -23.74461128 283.53221274 C-23.75587908 280.04385507 -23.76701759 276.55549701 -23.77807617 273.06713867 C-23.7813817 272.02546 -23.7813817 272.02546 -23.784754 270.96273731 C-23.82010059 259.72677278 -23.8449796 248.49080832 -23.86597202 237.25480885 C-23.88775513 225.72068195 -23.92105088 214.18663607 -23.96432656 202.65256876 C-23.98826253 196.17613847 -24.00698894 189.69978779 -24.01323891 183.22331429 C-24.01928794 177.12564957 -24.03928176 171.02818853 -24.06990051 164.93059921 C-24.07868355 162.69455187 -24.08240277 160.45847791 -24.08063316 158.22241402 C-24.07897738 155.16436328 -24.09570631 152.10693119 -24.11689758 149.04896545 C-24.10962622 147.72840238 -24.10962622 147.72840238 -24.10220796 146.38116127 C-24.17648836 139.86510481 -25.0850311 133.29956269 -29.140625 127.99609375 C-33.87365776 126.25234484 -38.66954845 127.3126055 -43.16357422 129.28076172 C-46.03847323 130.8211245 -48.84229457 132.44569899 -51.640625 134.12109375 C-52.65761475 134.71341797 -53.67460449 135.30574219 -54.72241211 135.91601562 C-57.66355501 137.63465635 -60.59143309 139.37380659 -63.515625 141.12109375 C-64.86846076 141.9232257 -66.22132113 142.72531614 -67.57421875 143.52734375 C-69.93467776 144.93379468 -72.28757731 146.35207917 -74.63671875 147.77734375 C-87.92418441 155.82993107 -101.36586556 163.63221759 -114.765625 171.49609375 C-115.37473724 171.85364746 -115.98384949 172.21120117 -116.61141968 172.57958984 C-124.41757378 177.15978455 -132.24614301 181.69809485 -140.09912109 186.19750977 C-169.40494956 202.08123163 -169.40494956 202.08123163 -185.71875 229.875 C-187.3016371 236.32293715 -187.65869108 242.52843615 -187.63150597 249.12508774 C-187.63188642 250.0087992 -187.63226688 250.89251067 -187.63265886 251.80300127 C-187.63270932 254.74790271 -187.62560675 257.69274208 -187.61849976 260.63763428 C-187.61706245 262.74557804 -187.61606429 264.85352214 -187.61547303 266.96146631 C-187.61259679 272.67854247 -187.60348178 278.39559365 -187.59322765 284.11266071 C-187.58340208 290.17365404 -187.57924273 296.23465149 -187.57439232 302.29565048 C-187.56446587 313.58969008 -187.5493854 324.88371614 -187.53197759 336.17774646 C-187.51965424 344.21951448 -187.50905611 352.26128211 -187.50031281 360.30305481 C-187.49917211 361.35029411 -187.49803141 362.39753341 -187.49685615 363.47650723 C-187.49458865 365.56278242 -187.49232273 367.64905762 -187.49005841 369.73533282 C-187.43508082 419.50618778 -187.33219467 469.27699124 -187.22809792 519.04776382 C-187.2181201 523.83099614 -187.20816791 528.61422851 -187.19824219 533.39746094 C-187.19577619 534.58519308 -187.1933102 535.77292521 -187.19076948 536.99664924 C-187.1504537 556.52048605 -187.11791567 576.04432877 -187.08812518 595.56818417 C-187.05705779 615.83161514 -187.01853854 636.09502158 -186.97283494 656.3584249 C-186.94756178 667.65213816 -186.92560709 678.94583637 -186.91228104 690.23957062 C-186.90103416 699.7708943 -186.88317258 709.30217551 -186.85645796 718.83346894 C-186.84307432 723.68357802 -186.83292468 728.53363763 -186.83141136 733.38376617 C-186.8299566 737.81846284 -186.81937635 742.25304003 -186.80149059 746.6877 C-186.79663856 748.29093464 -186.79514602 749.89418369 -186.79734619 751.49742416 C-186.79984516 753.67528473 -186.79010306 755.85276544 -186.77733803 758.03058243 C-186.77505971 759.2397074 -186.77278138 760.44883236 -186.77043402 761.69459748 C-186.42101495 766.39334462 -185.92912397 770.70759478 -182.515625 774.12109375 C-176.94721536 774.71940883 -173.36374991 773.45632276 -168.703125 770.62109375 C-168.02918701 770.22728516 -167.35524902 769.83347656 -166.66088867 769.42773438 C-159.03060524 764.92775895 -151.52037279 760.21931815 -143.99121094 755.55297852 C-135.71601238 750.43095437 -127.36066828 745.45995371 -118.953125 740.55859375 C-109.93871213 735.30293289 -100.95228887 730.00858652 -92.015625 724.62109375 C-83.47503597 719.47440839 -74.89880255 714.39335034 -66.29180908 709.3588562 C-64.41285852 708.25910702 -62.53510686 707.15733896 -60.65771484 706.05493164 C-55.65239792 703.1172914 -50.64637571 700.18391026 -45.59375 697.328125 C-36.13944558 691.93901572 -29.09741743 686.66748256 -25.515625 676.12109375 C-24.37852263 671.75146177 -24.45092355 667.51715716 -24.55859375 663.0390625 C-24.58098737 661.45118444 -24.60244218 659.86329291 -24.62304688 658.27539062 C-24.66004631 655.79348794 -24.70303664 653.31228404 -24.76245117 650.83081055 C-24.81735669 648.42096191 -24.84614348 646.01188411 -24.87109375 643.6015625 C-24.89487595 642.871082 -24.91865814 642.1406015 -24.94316101 641.38798523 C-24.97586347 634.86564115 -22.99940635 629.73827054 -18.48364258 624.97998047 C-13.26702635 621.18423479 -7.99272372 618.08048981 -2.203125 615.24609375 C6.42974893 610.8690152 14.74258842 606.06226822 22.984375 600.99609375 C25.36567203 599.53350623 27.74706597 598.07107773 30.12890625 596.609375 C30.72840088 596.24135269 31.32789551 595.87333038 31.94555664 595.49415588 C42.2971462 589.15636169 52.81620639 583.09717253 63.30175781 576.98486328 C66.19139474 575.29266565 69.07107616 573.58537561 71.9453125 571.8671875 C72.73784424 571.39466553 73.53037598 570.92214355 74.34692383 570.43530273 C75.75546959 569.59386429 77.16178184 568.74866862 78.56518555 567.89868164 C81.5270137 566.13375935 84.12333905 564.85497216 87.484375 564.12109375 C87.28843379 573.27846219 87.07998939 582.43545053 86.85750866 591.59221268 C86.75444267 595.84864435 86.65497415 600.1050823 86.56518555 604.36181641 C86.17836983 622.56549529 85.55260338 640.69984296 84.0234375 658.84765625 C83.96145361 659.58967537 83.89946972 660.33169449 83.83560753 661.09619904 C80.61506224 698.99882832 69.8473472 729.16183149 43.484375 757.12109375 C42.56978516 758.11496094 42.56978516 758.11496094 41.63671875 759.12890625 C27.57721058 773.87497215 9.51582146 784.42776011 -7.85546875 794.74609375 C-13.59954496 798.16055437 -19.30540444 801.63643869 -25.01113892 805.11447144 C-36.47584911 812.10066392 -47.99628602 818.98784612 -59.55032349 825.82516479 C-68.97355464 831.40286591 -78.355805 837.04217879 -87.703125 842.74609375 C-98.35516376 849.24489351 -109.0877229 855.59461056 -119.86523438 861.8828125 C-127.68070548 866.44503398 -135.45468611 871.07054422 -143.203125 875.74609375 C-154.88742462 882.79117699 -166.68513182 889.62726104 -178.53149414 896.39550781 C-180.55695296 897.5667377 -182.57154653 898.75692109 -184.57592773 899.96386719 C-190.86706752 903.73784583 -197.06341283 906.85346041 -203.953125 909.37109375 C-204.86344482 909.70826416 -205.77376465 910.04543457 -206.71166992 910.39282227 C-226.08183988 917.42291592 -246.51442719 920.33075069 -265.828125 911.55859375 C-280.48667664 903.44368321 -289.29176649 890.62421189 -294.48828125 874.9296875 C-299.56515478 856.10857841 -299.66354387 836.92458201 -299.64933777 817.57252502 C-299.65120735 815.16000153 -299.65350864 812.74747834 -299.65620309 810.33495563 C-299.66103613 805.10038815 -299.66277779 799.86582914 -299.66174698 794.63125992 C-299.66021777 786.8466167 -299.66439331 779.06198366 -299.6696216 771.27734243 C-299.67927935 756.56129627 -299.68210527 741.8452536 -299.68267866 727.12920464 C-299.68313874 715.76000909 -299.68519988 704.3908149 -299.68837929 693.0216198 C-299.68927688 689.74534557 -299.69016669 686.46907135 -299.69105417 683.19279712 C-299.69127521 682.37822637 -299.69149626 681.56365561 -299.69172401 680.72440089 C-299.69787616 657.81921265 -299.70182479 634.91402489 -299.70138073 612.00883579 C-299.70136515 611.14570146 -299.70134957 610.28256713 -299.70133352 609.39327721 C-299.70125042 605.01887646 -299.70115138 600.64447572 -299.70104881 596.27007497 C-299.70102887 595.40135555 -299.70100892 594.53263613 -299.70098837 593.63759187 C-299.70094794 591.88082905 -299.70090614 590.12406622 -299.70086298 588.3673034 C-299.70025054 561.04898144 -299.70775187 533.73067191 -299.72143555 506.41235352 C-299.73681526 475.69564094 -299.74540061 444.97893652 -299.74447232 414.26221985 C-299.7443977 410.98311643 -299.74434899 407.70401301 -299.74431801 404.42490959 C-299.74430635 403.6175573 -299.7442947 402.810205 -299.74428269 401.97838749 C-299.74425199 389.01759651 -299.75062261 376.05681636 -299.75925027 363.0960286 C-299.76775098 350.05566978 -299.76869786 337.01532671 -299.76214095 323.97496665 C-299.75846119 316.2408261 -299.76023025 308.50673358 -299.77008329 300.77259818 C-299.77683724 294.97846782 -299.77298722 289.18438132 -299.76521007 283.39025401 C-299.76368181 281.0605099 -299.76546552 278.7307605 -299.77107015 276.40102262 C-299.88939348 223.68599927 -287.88682164 177.71844948 -250.515625 139.12109375 C-249.80792969 138.3734375 -249.10023437 137.62578125 -248.37109375 136.85546875 C-243.14868985 131.45224842 -237.43412899 126.74115043 -231.515625 122.12109375 C-230.484375 121.3115625 -229.453125 120.50203125 -228.390625 119.66796875 C-208.42137061 104.35120644 -185.80851905 92.25974606 -164.1696167 79.47290039 C-159.74267419 76.85429474 -155.32958679 74.2133253 -150.921875 71.5625 C-143.87618628 67.32686979 -136.79762556 63.14953168 -129.703125 58.99609375 C-129.08855438 58.63592163 -128.47398376 58.27574951 -127.84078979 57.90466309 C-117.87091698 52.06251785 -107.86999051 46.27617226 -97.85229492 40.51635742 C-90.87506601 36.49926252 -83.93693101 32.42113932 -77.015625 28.30859375 C-73.51877063 26.24071979 -70.01821306 24.17923844 -66.515625 22.12109375 C-65.72220703 21.65300293 -64.92878906 21.18491211 -64.11132812 20.70263672 C-44.09652393 8.96302294 -23.36100844 1.12452059 0 0 Z " fill="#D39141" transform="translate(1401.515625,293.87890625)"/>
<path d="M0 0 C5.00958712 2.59170656 9.76736138 5.46440051 14.50439453 8.52294922 C22.18957187 13.42932702 29.92196682 18.25192058 37.69189453 23.02294922 C38.78276367 23.69310059 39.87363281 24.36325195 40.99755859 25.05371094 C43.23904619 26.43019493 45.48074741 27.80633111 47.72265625 29.18212891 C56.56728343 34.61034928 65.40572238 40.04855973 74.23876953 45.49560547 C76.92661949 47.14826997 79.62060165 48.7903587 82.31689453 50.42919922 C83.79615453 51.33529686 85.27532886 52.2415344 86.75439453 53.14794922 C87.41777832 53.54675293 88.08116211 53.94555664 88.76464844 54.35644531 C90.25432594 55.27445959 91.69852673 56.26572203 93.12939453 57.27294922 C93.12939453 57.93294922 93.12939453 58.59294922 93.12939453 59.27294922 C91.24294218 60.5529401 89.28870723 61.73323405 87.31298828 62.87060547 C86.71022568 63.22054565 86.10746307 63.57048584 85.48643494 63.93103027 C83.5170642 65.07257007 81.54199704 66.20386088 79.56689453 67.33544922 C77.53165307 68.5125435 75.49788406 69.69215495 73.46412659 70.87181091 C72.17773114 71.61703617 70.89046292 72.36075772 69.60215759 73.10267639 C64.06541528 76.292338 58.58892903 79.57799646 53.11767578 82.87841797 C47.65980753 86.16411531 42.17361239 89.40226742 36.69189453 92.64794922 C34.33900054 94.04112872 31.98613407 95.43435469 29.63330078 96.82763672 C29.02762268 97.18629318 28.42194458 97.54494965 27.7979126 97.91447449 C20.57141645 102.19447329 13.35054851 106.48394584 6.12939453 110.77294922 C-7.10098511 118.63052663 -20.33692614 126.47865712 -33.57617188 134.32128906 C-39.17467395 137.63790575 -44.77260716 140.95548234 -50.37060547 144.27294922 C-52.62060283 145.60628701 -54.87060282 146.93962035 -57.12060547 148.27294922 C-58.23435547 148.93294922 -59.34810547 149.59294922 -60.49560547 150.27294922 C-151.62060547 204.27294922 -151.62060547 204.27294922 -154.99829102 206.27441406 C-157.23948738 207.60261456 -159.48053652 208.93106353 -161.72143555 210.25976562 C-168.07305545 214.02536556 -174.42892014 217.78362029 -180.78909302 221.53474426 C-185.83844896 224.51449162 -190.87595449 227.51393328 -195.91113281 230.51757812 C-198.60259903 232.11398483 -201.30638318 233.68660574 -204.01513672 235.25341797 C-205.46749818 236.11318597 -206.91936934 236.97378308 -208.37060547 237.83544922 C-209.00506592 238.1923584 -209.63952637 238.54926758 -210.29321289 238.91699219 C-214.67000097 241.56118608 -216.65715372 244.40620245 -217.87060547 249.27294922 C-218.30499531 254.16003341 -218.26284577 259.03981681 -218.23136902 263.94169044 C-218.23267831 265.45764122 -218.2353074 266.97359133 -218.23913491 268.48953784 C-218.24585111 272.66611316 -218.23381293 276.84245807 -218.21879996 281.01900408 C-218.20579884 285.55863115 -218.21025377 290.09824595 -218.2125349 294.6378864 C-218.21413518 302.59773349 -218.20460584 310.55750717 -218.18784714 318.51733589 C-218.16299694 330.35360403 -218.15538518 342.18983893 -218.15147415 354.02613028 C-218.14446587 373.93698022 -218.12390565 393.84779425 -218.09609985 413.75862503 C-218.05831797 440.943052 -218.04016978 468.12746691 -218.02729976 495.3119158 C-218.02128045 507.9704482 -218.01429817 520.62898007 -218.00706482 533.28751183 C-218.00634178 534.554772 -218.00561874 535.82203218 -218.00487379 537.12769418 C-217.98743595 567.2981889 -217.96056562 597.46867408 -217.93212891 627.63916016 C-217.93087509 628.97279832 -217.92962162 630.30643649 -217.92836849 631.64007465 C-217.90948525 651.7260332 -217.89009685 671.81199125 -217.87060547 691.89794922 C-217.85046393 712.65424933 -217.83046129 733.41054955 -217.81096248 754.16685027 C-217.80908252 756.16696285 -217.80719778 758.16707542 -217.80531304 760.16718799 C-217.77697989 790.28878041 -217.75133282 820.41037185 -217.73414612 850.53197289 C-217.73342314 851.79715089 -217.73270016 853.0623289 -217.73195527 854.36584564 C-217.72480012 866.99471923 -217.71811624 879.62359298 -217.71213653 892.25246718 C-217.69917293 919.41025525 -217.67790894 946.56800125 -217.63999298 973.72576666 C-217.61248507 993.51794304 -217.59518418 1013.31010527 -217.58864093 1033.10229994 C-217.58438598 1044.87233583 -217.57156732 1056.64229276 -217.54680246 1068.41230372 C-217.53108811 1076.26399872 -217.52613272 1084.11565179 -217.53008253 1091.96736143 C-217.53201426 1096.44771866 -217.52907151 1100.92793283 -217.51299226 1105.40826471 C-217.49846628 1109.4794432 -217.4976049 1113.55038072 -217.50790952 1117.62156999 C-217.50917924 1119.08967803 -217.50535025 1120.55780101 -217.49595572 1122.02587955 C-217.48396641 1124.01233954 -217.49217759 1125.99889104 -217.50146198 1127.98536551 C-217.49975324 1129.63836062 -217.49975324 1129.63836062 -217.49800998 1131.32474957 C-218.02909426 1135.52700787 -219.6435677 1138.18335967 -222.78857422 1140.97607422 C-228.28079118 1144.71947855 -233.93775736 1148.0493977 -239.75415039 1151.25488281 C-246.56951616 1155.03923861 -253.21912944 1159.08438381 -259.87060547 1163.14794922 C-271.67574317 1170.35537093 -283.54157892 1177.45409283 -295.44580078 1184.49658203 C-296.76974151 1185.28003041 -298.09363547 1186.06355784 -299.41748047 1186.84716797 C-300.37729828 1187.41529709 -300.37729828 1187.41529709 -301.35650635 1187.99490356 C-305.3175143 1190.34284088 -309.2634408 1192.71407056 -313.19873047 1195.10498047 C-314.12878906 1195.66918701 -315.05884766 1196.23339355 -316.01708984 1196.81469727 C-317.69298381 1197.83384321 -319.36637506 1198.85712203 -321.03662109 1199.88549805 C-321.76042969 1200.32531006 -322.48423828 1200.76512207 -323.22998047 1201.21826172 C-324.1498877 1201.78311279 -324.1498877 1201.78311279 -325.08837891 1202.359375 C-326.87060547 1203.27294922 -326.87060547 1203.27294922 -330.87060547 1204.27294922 C-330.87060547 908.92294922 -330.87060547 613.57294922 -330.87060547 309.27294922 C-352.435994 322.0493236 -352.435994 322.0493236 -373.99560547 334.83544922 C-374.65450775 335.22648834 -375.31341003 335.61752747 -375.99227905 336.02041626 C-385.92130015 341.91430113 -395.83010498 347.84095201 -405.72631836 353.78979492 C-413.11322494 358.22693043 -420.51823312 362.63272102 -427.93310547 367.02294922 C-429.59768799 368.00859863 -429.59768799 368.00859863 -431.29589844 369.01416016 C-435.45652656 371.47721406 -439.61736891 373.93990558 -443.77868652 376.40179443 C-458.83246183 385.30808542 -473.86768604 394.23996795 -488.80810547 403.33544922 C-505.89969066 413.73125167 -505.89969066 413.73125167 -511.93310547 417.33544922 C-512.61171631 417.74738525 -513.29032715 418.15932129 -513.98950195 418.58374023 C-518.52407087 421.27294922 -518.52407087 421.27294922 -521.87060547 421.27294922 C-522.04823356 407.06902912 -522.21373215 392.86501167 -522.36538124 378.66078949 C-522.43615257 372.06495867 -522.51077319 365.46921853 -522.59423828 358.87353516 C-522.67466842 352.50643007 -522.74492512 346.13928601 -522.80817795 339.77198792 C-522.83406888 337.34473038 -522.86360368 334.91750885 -522.89686966 332.49034119 C-522.94289429 329.0865211 -522.97587323 325.6828026 -523.00585938 322.27880859 C-523.03067131 320.77908005 -523.03067131 320.77908005 -523.0559845 319.24905396 C-523.0967505 312.5092922 -522.8230956 306.33718039 -519.1027832 300.49853516 C-516.61748477 298.02057601 -514.2014395 296.40701751 -511.15576172 294.66357422 C-510.59693802 294.33975266 -510.03811432 294.01593109 -509.46235657 293.68229675 C-507.62442975 292.61993071 -505.77886036 291.57164532 -503.93310547 290.52294922 C-502.63056906 289.77279682 -501.32865877 289.0215563 -500.02734375 288.26928711 C-497.3230667 286.70715878 -494.61615965 285.14974238 -491.90722656 283.59570312 C-486.26521177 280.35478284 -480.65404178 277.06152855 -475.04367065 273.76623535 C-473.23342217 272.70329544 -471.42235521 271.64176247 -469.61108398 270.58056641 C-460.40165066 265.18313207 -451.21699099 259.74445481 -442.03857422 254.29443359 C-433.79247308 249.40161862 -425.52275291 244.55047611 -417.24560547 239.71044922 C-407.23236344 233.85479867 -397.26609032 227.92684908 -387.32983398 221.94116211 C-379.3137102 217.12002259 -371.25697617 212.3714391 -363.18310547 207.64794922 C-362.567276 207.28766632 -361.95144653 206.92738342 -361.31695557 206.55618286 C-358.87890696 205.12998576 -356.44081539 203.70386217 -354.00262451 202.27790833 C-339.26666549 193.65671251 -324.59466222 184.92623919 -309.90844727 176.22070312 C-300.12421889 170.42145348 -290.33340756 164.63340673 -280.54003906 158.84960938 C-276.90413931 156.70212076 -273.26869957 154.55385411 -269.63330078 152.40551758 C-267.79025368 151.31639987 -265.94715465 150.22737004 -264.10400391 149.13842773 C-259.60731715 146.48169231 -255.11125717 143.82390969 -250.61669922 141.16357422 C-242.7258819 136.49461563 -234.83207585 131.83121254 -226.91748047 127.20263672 C-224.46431828 125.76780445 -222.01116682 124.33295388 -219.55810547 122.89794922 C-218.94342407 122.53837128 -218.32874268 122.17879333 -217.69543457 121.80831909 C-208.08289256 116.18242157 -198.52017636 110.47806543 -188.97949219 104.73095703 C-180.92106833 99.88430786 -172.81176178 95.12975526 -164.68237305 90.40332031 C-155.29026881 84.94227424 -145.93653527 79.41768151 -136.58837891 73.88183594 C-132.01751815 71.1759455 -127.44391587 68.47469659 -122.87060547 65.77294922 C-121.03725918 64.68963782 -119.20392584 63.60630449 -117.37060547 62.52294922 C-106.37060548 56.02294923 -106.37060548 56.02294923 -103.62182617 54.39868164 C-101.78441087 53.31292883 -99.94700857 52.22715401 -98.10961914 51.14135742 C-93.58884505 48.46986361 -89.06786213 45.79872467 -84.54638672 43.12841797 C-74.58763123 37.2463886 -64.63318817 31.35713879 -54.68310547 25.46044922 C-53.56709961 24.79924072 -52.45109375 24.13803223 -51.30126953 23.45678711 C-45.93086874 20.27439848 -40.56157072 17.09019288 -35.19563293 13.90028381 C-32.70761188 12.42139492 -30.21899161 10.9435161 -27.73031616 9.46572876 C-26.54220874 8.75983668 -25.35439819 8.05344465 -24.16690063 7.3465271 C-22.51809464 6.36502727 -20.86820123 5.38535487 -19.21826172 4.40576172 C-17.81072632 3.56875732 -17.81072632 3.56875732 -16.37475586 2.71484375 C-11.00361567 -0.37786893 -6.13814618 -2.38572166 0 0 Z " fill="#CA863B" transform="translate(1243.87060546875,178.72705078125)"/>
<path d="M0 0 C4.79524445 2.10262586 9.07474435 4.88837555 13.4375 7.75 C14.68261403 8.54033544 15.92938397 9.32806771 17.17773438 10.11328125 C19.66029488 11.67775685 22.1354579 13.25292043 24.60498047 14.83789062 C29.01157396 17.65725108 33.49892593 20.33488413 38 23 C49.49339698 29.87129818 60.928695 36.83871395 72.37109375 43.79443359 C77.66591334 47.01287074 82.96272626 50.22802428 88.25942993 53.44335938 C90.58406285 54.8545646 92.90858432 56.26595336 95.23310852 57.67733765 C99.94795111 60.54004563 104.66295581 63.4024862 109.37825012 66.26445007 C123.65990692 74.93275854 137.93683065 83.6087725 152.20556641 92.29833984 C156.00838644 94.61405325 159.81164104 96.9290523 163.61499023 99.24389648 C165.53260902 100.41114976 167.45009034 101.57862888 169.36743164 102.74633789 C174.2055491 105.69255078 179.04591527 108.63495065 183.890625 111.5703125 C189.60243525 115.032748 195.30373409 118.51206182 201 122 C201.93618164 122.57121582 202.87236328 123.14243164 203.83691406 123.73095703 C206.52220847 125.37374193 209.1996697 127.02855043 211.875 128.6875 C212.68420898 129.18072754 213.49341797 129.67395508 214.32714844 130.18212891 C215.06223633 130.64151855 215.79732422 131.1009082 216.5546875 131.57421875 C217.19905762 131.97213623 217.84342773 132.37005371 218.50732422 132.7800293 C220 134 220 134 221 137 C219.99308105 137.59349243 219.99308105 137.59349243 218.96582031 138.19897461 C205.45267198 146.16999557 191.98075526 154.199826 178.58435059 162.36593628 C169.09680503 168.14661107 159.56083233 173.84146047 150 179.5 C139.96301508 185.44049544 129.95820269 191.42834156 120 197.5 C109.36671155 203.98326787 98.6763327 210.36477342 87.95898438 216.70800781 C78.6031583 222.24705153 69.28314968 227.84004123 60 233.5 C48.47431037 240.52537179 36.88716541 247.44287414 25.27148438 254.31835938 C24.64154572 254.69126099 24.01160706 255.0641626 23.36257935 255.44836426 C22.11808299 256.18505735 20.87351629 256.92163163 19.62887573 257.65808105 C14.31672264 260.8045567 9.02267367 263.9808642 3.73612976 267.17016602 C-1.71143498 270.45004131 -5.53773261 272.19233384 -12 271 C-16.15563759 269.14620479 -19.95955611 266.7888047 -23.8046875 264.37353516 C-26.1996848 262.87506376 -28.61317143 261.41014122 -31.03125 259.94921875 C-34.90075267 257.60901368 -38.76350856 255.25823743 -42.62109375 252.8984375 C-49.30084549 248.81319719 -55.99321732 244.74886208 -62.6875 240.6875 C-65.0716754 239.24098562 -67.45579894 237.79438585 -69.83984375 236.34765625 C-70.43390015 235.98717697 -71.02795654 235.62669769 -71.64001465 235.2552948 C-75.72230767 232.77741836 -79.80123664 230.29406929 -83.87890625 227.80859375 C-97.1503413 219.72360288 -110.47398401 211.73424665 -123.84851074 203.82086182 C-131.52888119 199.27493483 -139.18103604 194.70094072 -146.71240234 189.91088867 C-153.83992321 185.41165303 -161.11997046 181.16398298 -168.375 176.875 C-179.62724044 170.22237163 -190.81128584 163.47720365 -201.92578125 156.59643555 C-209.52665625 151.89321442 -217.1706168 147.26834365 -224.86230469 142.71508789 C-225.99394043 142.04207642 -225.99394043 142.04207642 -227.1484375 141.35546875 C-227.79989746 140.97028076 -228.45135742 140.58509277 -229.12255859 140.18823242 C-231.18367428 138.88375257 -233.1309042 137.57003009 -235 136 C-235 135.34 -235 134.68 -235 134 C-233.58007812 132.88110352 -233.58007812 132.88110352 -231.53125 131.62890625 C-230.74935303 131.14711914 -229.96745605 130.66533203 -229.16186523 130.16894531 C-227.84424194 129.37375488 -227.84424194 129.37375488 -226.5 128.5625 C-225.57582275 127.99756836 -224.65164551 127.43263672 -223.69946289 126.85058594 C-213.94578449 120.91335779 -204.11274464 115.10695726 -194.28515625 109.29321289 C-185.48750053 104.08657251 -176.72827237 98.82205626 -168 93.5 C-156.61986165 86.56382928 -145.17742816 79.73763465 -133.7109375 72.9453125 C-125.62536201 68.15532981 -117.55351223 63.34379813 -109.5 58.5 C-99.219674 52.31815124 -88.90907753 46.18837617 -78.59130859 40.06933594 C-70.71603088 35.39853258 -62.84554837 30.72064799 -55 26 C-46.71329462 21.01507847 -38.40427752 16.06797366 -30.09033203 11.12866211 C-28.62014036 10.2551991 -27.15008696 9.38150331 -25.68017578 8.50756836 C-23.61795511 7.28164319 -21.55516493 6.05668241 -19.4921875 4.83203125 C-18.86609589 4.45971878 -18.24000427 4.08740631 -17.59494019 3.70381165 C-11.41686895 0.03969793 -7.25161997 -1.15884919 0 0 Z " fill="#C8843A" transform="translate(945,0)"/>
<path d="M0 0 C15.98757494 7.09405382 26.32332937 33.57541848 32.25 48.9375 C42.17381028 75.66792329 44.08809453 108.5041718 36 136 C35.78569336 136.75974121 35.57138672 137.51948242 35.35058594 138.30224609 C31.53148977 151.59125541 26.23726567 164.33392876 18 175.5 C13.56436496 182.35047963 14.39817035 189.22417526 15 197 C15.11194603 198.86711185 15.2225452 200.73430478 15.33203125 202.6015625 C20.91336529 289.23845125 50.92935344 374.95647689 104 468 C104.59925293 468.9909668 105.19850586 469.98193359 105.81591797 471.00292969 C122.24503073 498.02512898 140.476709 523.94300938 160.62353516 548.32373047 C162.46611062 550.56763312 164.26461681 552.84520998 166.0625 555.125 C173.33944055 564.24420398 181.04190909 573.03181357 188.8828125 581.66796875 C190.25990841 583.18480687 191.63010783 584.70794468 192.9921875 586.23828125 C203.17148944 597.66598815 213.70010297 608.78292087 224.5 619.625 C225.13365479 620.26324707 225.76730957 620.90149414 226.42016602 621.55908203 C230.20604741 625.33254745 234.10985311 628.91142668 238.171875 632.38623047 C240.02651994 634.02341036 241.76846251 635.73383697 243.5 637.5 C246.48872337 640.53594925 249.61706479 643.34508659 252.84375 646.125 C255.19962958 648.17359094 257.5050746 650.27203002 259.8125 652.375 C264.10473618 656.24911881 268.52778674 659.92017548 273.0234375 663.5546875 C275.75216195 665.79639551 278.42982599 668.08363911 281.09765625 670.39672852 C287.60428864 676.03729953 294.25584083 681.36773744 301.12353516 686.56640625 C303.2965924 688.22659258 305.45173911 689.90856806 307.60546875 691.59375 C308.40500977 692.21910645 309.20455078 692.84446289 310.02832031 693.48876953 C311.59775796 694.71753679 313.16617024 695.94761517 314.73339844 697.17919922 C317.9374052 699.68281835 321.12558274 702.13309329 324.53515625 704.3515625 C325.34855469 704.89554688 326.16195313 705.43953125 327 706 C327 706.33 327 706.66 327 707 C320.47181955 707.20387742 313.94446767 707.34336471 307.41381836 707.43945312 C305.19540736 707.47953223 302.97720567 707.53401322 300.75952148 707.60351562 C279.92484753 708.23983174 279.92484753 708.23983174 274.3359375 703.24609375 C273.1834084 701.86354855 272.06484328 700.45115932 271 699 C269.19943784 697.5063246 267.38903618 696.02429885 265.5625 694.5625 C261.02330071 690.87915532 256.65437799 687.05154406 252.33203125 683.1171875 C250.24176111 681.21948831 248.13013885 679.35266585 246 677.5 C231.32947464 664.69610212 217.18044958 651.35617187 203.43554688 637.56591797 C201.47641344 635.60134799 199.51188356 633.64228552 197.546875 631.68359375 C186.47077387 620.61333988 186.47077387 620.61333988 181.41503906 614.66015625 C179.07727758 611.91744091 176.58995067 609.31542605 174.125 606.6875 C169.66173293 601.89004372 165.43025571 596.96837627 161.328125 591.85546875 C159.18623372 589.22841753 156.98946349 586.6668348 154.76245117 584.11254883 C148.0696204 576.42362605 141.84218845 568.43897313 135.72265625 560.2890625 C133.95949891 557.94618222 132.18386491 555.61317494 130.40625 553.28125 C101.74018248 515.54858195 77.45566987 475.21275087 56 433 C55.52336914 432.06430176 55.04673828 431.12860352 54.55566406 430.16455078 C18.11834941 358.02767082 -8.17474834 273.44632499 -11.13623047 192.265625 C-11.44267675 184.89524933 -12.16535268 180.02883996 -16.625 174.125 C-17.54604643 172.77907049 -18.45865479 171.42733267 -19.36328125 170.0703125 C-19.81268066 169.39774414 -20.26208008 168.72517578 -20.72509766 168.03222656 C-39.42650838 138.22170514 -41.758803 98.15467621 -34.49609375 64.67724609 C-29.36107991 42.37321841 -18.91094961 22.27731447 -4 5 C-2.66018625 3.33853839 -1.32496521 1.67332685 0 0 Z " fill="#B26F32" transform="translate(152,671)"/>
<path d="M0 0 C4.77177249 2.08436963 7.04759848 5.42654226 10.125 9.5 C10.69686035 10.25611572 11.2687207 11.01223145 11.85791016 11.79125977 C25.18379791 29.81482944 33.85609 50.00540075 38 72 C38.33837891 73.77697266 38.33837891 73.77697266 38.68359375 75.58984375 C44.73454676 113.35613666 34.98559673 150.5216049 14 182 C13.68478946 184.30196456 13.47647744 186.61904884 13.32421875 188.9375 C13.22090357 190.38593673 13.11712207 191.83434025 13.01293945 193.28271484 C12.96062164 194.04976746 12.90830383 194.81682007 12.85440063 195.6071167 C7.20366204 276.62273437 -16.56942906 355.70001576 -91 499 C-91.57024902 499.92490234 -92.14049805 500.84980469 -92.72802734 501.80273438 C-115.32023232 538.43127104 -142.09084545 572.94314205 -171.0078125 604.79296875 C-172.76193381 606.73626001 -174.47972694 608.70359448 -176.1875 610.6875 C-186.13843151 622.07764696 -196.72556892 632.89115647 -207.43408203 643.56445312 C-209.39865201 645.52358656 -211.35771448 647.48811644 -213.31640625 649.453125 C-224.3555168 660.49806673 -224.3555168 660.49806673 -230.30859375 665.55371094 C-233.23761169 668.05825803 -236.00986695 670.7310371 -238.8125 673.375 C-243.85431643 678.09747432 -249.02364567 682.5665215 -254.41796875 686.88671875 C-257.04421768 689.03619026 -259.55633453 691.27460088 -262.0625 693.5625 C-266.2573201 697.38758435 -270.60448315 700.96046725 -275.06640625 704.46875 C-276.8941015 705.85565261 -276.8941015 705.85565261 -278 707 C-279.47354348 707.09304018 -280.95150591 707.11746265 -282.42797852 707.11352539 C-283.36887833 707.11344986 -284.30977814 707.11337433 -285.27919006 707.11329651 C-286.30209641 707.10813522 -287.32500275 707.10297394 -288.37890625 707.09765625 C-289.42070541 707.0962413 -290.46250458 707.09482635 -291.53587341 707.09336853 C-294.87811094 707.0877508 -298.22028257 707.0751953 -301.5625 707.0625 C-303.82226466 707.05748728 -306.08203037 707.05292398 -308.34179688 707.04882812 C-313.89455391 707.03777561 -319.44727225 707.02102024 -325 707 C-322.11256055 704.06229122 -319.2013494 701.56053218 -315.875 699.125 C-303.95100229 690.27299681 -292.22143545 681.19550248 -280.953125 671.51953125 C-278.10764343 669.09183864 -275.22080717 666.7268294 -272.3125 664.375 C-267.85808887 660.74931653 -263.57051399 656.97570347 -259.32421875 653.109375 C-257.27957665 651.25373343 -255.21215851 649.43243624 -253.125 647.625 C-247.65595869 642.85320698 -242.32644381 637.92950691 -237 633 C-236.39091797 632.43748535 -235.78183594 631.8749707 -235.15429688 631.29541016 C-227.45740511 624.17598103 -219.86597657 616.96224477 -212.4375 609.5625 C-211.79522461 608.92481689 -211.15294922 608.28713379 -210.49121094 607.63012695 C-206.7001297 603.82667273 -203.10225615 599.90712719 -199.61157227 595.82592773 C-197.97522294 593.97192734 -196.26528221 592.23095945 -194.5 590.5 C-190.7878767 586.8369356 -187.40037929 582.95145365 -184 579 C-183.05409215 577.91735087 -182.10741277 576.83537557 -181.16015625 575.75390625 C-168.80845442 561.62619275 -156.90153169 547.18526498 -145.63427734 532.17578125 C-144.54678763 530.72796106 -143.45597393 529.2826315 -142.36181641 527.83984375 C-87.81588939 455.86304067 -45.4577324 371.31896537 -13.16259766 199.71191406 C-13.05929713 197.98899786 -12.94324919 196.26676203 -12.81005859 194.54589844 C-12.15004757 185.89324691 -12.66569816 180.03088597 -17.9375 172.8671875 C-24.27331705 164.05944182 -28.3223701 153.76831535 -31.8125 143.5625 C-32.09029297 142.76602051 -32.36808594 141.96954102 -32.65429688 141.14892578 C-37.18918958 127.26564415 -38.56223543 113.2638301 -38.4375 98.75 C-38.43293793 97.61295624 -38.43293793 97.61295624 -38.42828369 96.45294189 C-38.2237278 61.81390108 -25.85722848 26.42607354 -1.2734375 1.23046875 C-0.64308594 0.62138672 -0.64308594 0.62138672 0 0 Z " fill="#E2A24E" transform="translate(1718,671)"/>
<path d="M0 0 C1.11439453 -0.00386719 2.22878906 -0.00773438 3.37695312 -0.01171875 C4.45267578 -0.01042969 5.52839844 -0.00914062 6.63671875 -0.0078125 C8.0921106 -0.00612061 8.0921106 -0.00612061 9.5769043 -0.00439453 C12.25314965 0.12219271 14.70467351 0.52728035 17.3125 1.125 C16.77016076 7.78037294 15.50384824 13.67861802 13.375 20 C13.07070068 20.90476074 12.76640137 21.80952148 12.45288086 22.74169922 C7.58986877 36.60327424 0.62454801 49.73436984 -8.6875 61.125 C-9.13351562 61.67494629 -9.57953125 62.22489258 -10.0390625 62.79150391 C-33.90704006 92.04413549 -66.74726305 110.41925033 -104.32226562 114.93530273 C-109.4965296 115.35029067 -114.68765293 115.26743646 -119.875 115.25 C-121.03708984 115.25386719 -122.19917969 115.25773437 -123.39648438 115.26171875 C-124.51732422 115.26042969 -125.63816406 115.25914063 -126.79296875 115.2578125 C-128.31120239 115.25612061 -128.31120239 115.25612061 -129.86010742 115.25439453 C-132.5722996 115.1302721 -135.04603915 114.73431189 -137.6875 114.125 C-129.80673558 76.66819027 -110.05954265 44.06273314 -77.58447266 22.74243164 C-54.00356801 7.76521049 -27.94437302 -0.09799313 0 0 Z " fill="#E6A750" transform="translate(1844.6875,978.875)"/>
<path d="M0 0 C5.62508489 4.08139655 10.80620268 8.66743251 15.90380859 13.38134766 C16.73525391 14.14189453 17.56669922 14.90244141 18.42333984 15.68603516 C38.34547959 34.7359271 52.9023202 62.05203328 56.90380859 89.38134766 C41.05057034 92.96493356 22.64376038 90.91684898 6.90380859 87.38134766 C6.21625488 87.23101074 5.52870117 87.08067383 4.8203125 86.92578125 C-13.96086774 82.62464532 -32.19634714 73.54895757 -47.09619141 61.38134766 C-47.68722656 60.90552246 -48.27826172 60.42969727 -48.88720703 59.93945312 C-72.62607942 40.69392063 -94.25328987 11.56868161 -97.77978516 -19.73583984 C-97.88419922 -21.01716797 -97.98861328 -22.29849609 -98.09619141 -23.61865234 C-65.40725405 -30.9613396 -26.86558033 -18.54565233 0 0 Z " fill="#AE692E" transform="translate(108.09619140625,1003.61865234375)"/>
<path d="M0 0 C4.17943073 1.39314358 5.23066468 4.26425346 7.25 7.9375 C7.64405029 8.64970703 8.03810059 9.36191406 8.4440918 10.09570312 C26.57845894 43.77747778 29.63010962 82.74448631 19.17773438 119.34790039 C10.83204459 146.61870443 -6.40514189 172.60575254 -30 189 C-45.93313057 174.62132119 -52.46050487 144.57176027 -54 124 C-55.54229699 89.96664636 -48.61914591 56.78377842 -28 29 C-27.43410156 28.21238281 -26.86820313 27.42476562 -26.28515625 26.61328125 C-19.29790649 17.36320224 -9.93028973 6.18727734 0 0 Z " fill="#D89847" transform="translate(1440,1166)"/>
<path d="M0 0 C4.77136568 2.2029719 8.17564517 5.44274297 12 9 C12.72268066 9.66370605 12.72268066 9.66370605 13.45996094 10.34082031 C38.5393996 33.57180565 54.5533958 67.47631621 56.12646484 101.75585938 C56.96941583 133.90611737 50.2921285 161.75179751 33 189 C7.38281245 174.81489068 -10.09181987 143.42041556 -18.12109375 116.19921875 C-27.56721716 81.62997486 -24.54421721 42.60544132 -6.90527344 11.04101562 C-4.70839939 7.29173446 -2.39198584 3.62836293 0 0 Z " fill="#B97534" transform="translate(430,1166)"/>
<path d="M0 0 C10.73865557 1.89971303 21.14504002 11.0705489 29 18 C29.85335938 18.7321875 30.70671875 19.464375 31.5859375 20.21875 C58.80944456 44.00790694 75.00284801 78.07063784 78 114 C79.11574786 135.67307911 77.38649617 159.49512639 67 179 C62.25432666 177.63382131 58.34490114 175.57623196 54.25 172.875 C53.33093872 172.27449829 53.33093872 172.27449829 52.39331055 171.66186523 C46.99426222 168.08534009 41.91528869 164.21987807 37 160 C36.09507813 159.22914063 35.19015625 158.45828125 34.2578125 157.6640625 C7.63212322 134.28360959 -8.14439455 100.12659114 -11 65 C-12.21949687 44.95814966 -11.54637044 17.31955566 0 0 Z " fill="#E1A04C" transform="translate(1600,775)"/>
<path d="M0 0 C1.2497802 2.74401619 2.19133268 5.2600932 3.0625 8.125 C3.31926514 8.93380615 3.57603027 9.7426123 3.84057617 10.57592773 C15.22253367 47.44710856 11.18685518 86.76505756 -6.796875 120.81298828 C-19.18300798 143.32820323 -41.08367384 169.06448993 -66 178 C-66.99 177.67 -67.98 177.34 -69 177 C-70.16189035 174.282871 -71.11638857 171.68306051 -72 168.875 C-72.39191528 167.66179077 -72.39191528 167.66179077 -72.79174805 166.42407227 C-84.37358201 129.56095579 -79.87217461 91.0186322 -62.5703125 56.78515625 C-53.59161993 39.70284159 -40.19278719 24.1367601 -24.8125 12.5 C-24.07362549 11.93974121 -23.33475098 11.37948242 -22.57348633 10.80224609 C-5.294582 -2.11995541 -5.294582 -2.11995541 0 0 Z " fill="#B26E30" transform="translate(273,776)"/>
<path d="M0 0 C1.91668266 29.96351859 -14.0864397 61.61852649 -33.21875 83.78125 C-57.0249916 110.55987091 -89.26836152 127.33159881 -125 131 C-127.4992803 131.06349798 -130.00002876 131.08653818 -132.5 131.0625 C-133.7271875 131.05347656 -134.954375 131.04445313 -136.21875 131.03515625 C-137.1365625 131.02355469 -138.054375 131.01195312 -139 131 C-140.96085223 101.09700344 -124.55814743 70.1573033 -106 48 C-105.41347656 47.28972656 -104.82695313 46.57945312 -104.22265625 45.84765625 C-100.18208592 41.07410264 -95.84213079 36.95143784 -91 33 C-90.06414062 32.2265625 -89.12828125 31.453125 -88.1640625 30.65625 C-63.44419535 10.67296046 -31.86228351 -0.72539615 0 0 Z " fill="#E7A750" transform="translate(1872,831)"/>
<path d="M0 0 C34.31697612 -0.73750997 65.94049957 12.17351487 92 34 C92.71027344 34.58652344 93.42054687 35.17304687 94.15234375 35.77734375 C98.92589736 39.81791408 103.04856216 44.15786921 107 49 C107.7734375 49.93585937 108.546875 50.87171875 109.34375 51.8359375 C126.80244842 73.42681176 140.09959103 102.83825198 139 131 C105.60696712 132.4495368 73.17701028 119.55651458 48 98 C47.16855469 97.29101562 46.33710937 96.58203125 45.48046875 95.8515625 C21.52111558 74.87332701 3.04636295 43.18990183 0 11 C-0.12963475 7.32392884 -0.10541104 3.67560192 0 0 Z " fill="#AD682E" transform="translate(0,831)"/>
<path d="M0 0 C0.65871094 0.18191895 1.31742187 0.36383789 1.99609375 0.55126953 C37.22670968 10.46652588 66.731936 34.59923357 84.8828125 66.1328125 C87.09476868 70.09970912 89.12162931 74.14433122 91.0625 78.25 C91.3618042 78.88212402 91.6611084 79.51424805 91.96948242 80.16552734 C93.24984463 82.97151718 94 84.87675172 94 88 C57.0947183 98.75316553 19.71130028 94.1734717 -14 76 C-15.08539063 75.42121094 -16.17078125 74.84242187 -17.2890625 74.24609375 C-24.52840406 70.21488417 -30.77310406 65.44853395 -37 60 C-37.9796875 59.16597656 -38.959375 58.33195312 -39.96875 57.47265625 C-56.72238699 42.93426445 -69.20674752 23.69598836 -77 3 C-77 2.34 -77 1.68 -77 1 C-74.48025747 0.34964629 -71.95934065 -0.29537493 -69.4375 -0.9375 C-68.73302734 -1.11990234 -68.02855469 -1.30230469 -67.30273438 -1.49023438 C-66.60341797 -1.66748047 -65.90410156 -1.84472656 -65.18359375 -2.02734375 C-64.23311157 -2.27085571 -64.23311157 -2.27085571 -63.26342773 -2.51928711 C-43.47486683 -6.72203508 -19.37783079 -5.61495716 0 0 Z " fill="#AF6B2F" transform="translate(133,1124)"/>
<path d="M0 0 C11.4948069 5.08424151 20.93090667 13.43988639 30 22 C30.67546875 22.62261719 31.3509375 23.24523437 32.046875 23.88671875 C54.44640267 45.25586815 69.67629564 78.44087628 71.16113281 109.35473633 C71.4810625 135.84751859 68.88363934 158.47862965 58 183 C53.18992379 181.65056686 49.43718641 179.54518037 45.4375 176.625 C44.53112793 175.96842407 44.53112793 175.96842407 43.60644531 175.29858398 C11.34026327 151.41808199 -7.52937515 117.46848823 -13.58984375 78.17578125 C-16.54758821 52.6553919 -13.3589015 22.46186978 0 0 Z " fill="#DF9F4B" transform="translate(1563,928)"/>
<path d="M0 0 C3.64928751 3.30051961 4.79648461 7.01877494 6.4375 11.5625 C6.74316895 12.40151855 7.04883789 13.24053711 7.36376953 14.10498047 C20.03270059 49.99021445 17.41330917 89.29266086 1.22265625 123.58203125 C-5.11568325 136.4589871 -13.281265 147.49020517 -23 158 C-23.76054687 158.83144531 -24.52109375 159.66289063 -25.3046875 160.51953125 C-33.74424335 169.34551365 -44.0563587 177.53927838 -55 183 C-55.66 183 -56.32 183 -57 183 C-60.39488747 175.09026218 -63.41834316 167.16751833 -65.75 158.875 C-66.04716919 157.83980225 -66.04716919 157.83980225 -66.3503418 156.78369141 C-69.46789624 145.30693611 -70.39058946 133.85987064 -70.375 122 C-70.37478851 121.32735107 -70.37457703 120.65470215 -70.37435913 119.96166992 C-70.33698328 107.97447356 -69.12576556 96.59741824 -66 85 C-65.73509766 83.99791504 -65.73509766 83.99791504 -65.46484375 82.97558594 C-58.973977 59.33200278 -45.97291054 39.3670565 -29 22 C-28.41089844 21.34902344 -27.82179688 20.69804688 -27.21484375 20.02734375 C-19.66185228 11.85620464 -9.69941231 5.33717662 0 0 Z " fill="#B36F31" transform="translate(308,928)"/>
<path d="M0 0 C-10.88410477 23.77175121 -40.00881113 41.2072024 -63.41015625 50.13671875 C-100.91156561 63.62040996 -140.65688967 61.18431425 -176.61083984 44.25830078 C-180.61452559 42.14967659 -184.31344251 39.61567656 -188 37 C-186.78675666 33.61363225 -185.55711514 31.16671805 -183.09375 28.546875 C-182.52019775 27.93223389 -181.94664551 27.31759277 -181.35571289 26.68432617 C-180.74332764 26.04599854 -180.13094238 25.4076709 -179.5 24.75 C-178.86634521 24.08395752 -178.23269043 23.41791504 -177.57983398 22.73168945 C-130.34314828 -26.50335635 -58.35694677 -33.75306455 0 0 Z " fill="#E1A14C" transform="translate(1739,1260)"/>
<path d="M0 0 C7.63995135 6.83275411 14.60542728 14.02708645 20.625 22.34765625 C19.58706273 25.63689409 18.48890103 26.43148778 15.4921875 28.27734375 C14.16896939 28.94097402 12.83759214 29.58849651 11.5 30.22265625 C10.43072266 30.74037598 10.43072266 30.74037598 9.33984375 31.26855469 C-26.32681786 48.20865187 -64.92759397 50.75607125 -102.50561523 38.04321289 C-117.45333845 32.59946143 -131.33890555 24.73404825 -143.375 14.34765625 C-144.28636719 13.56261719 -145.19773438 12.77757812 -146.13671875 11.96875 C-148.5902996 9.80123688 -150.99369375 7.59409206 -153.375 5.34765625 C-154.01050781 4.75339844 -154.64601562 4.15914062 -155.30078125 3.546875 C-159.78249407 -0.77584135 -163.90420581 -5.47252628 -167.375 -10.65234375 C-167.375 -11.31234375 -167.375 -11.97234375 -167.375 -12.65234375 C-112.93261397 -43.03334076 -48.61175014 -41.01616418 0 0 Z " fill="#B26D30" transform="translate(300.375,1272.65234375)"/>
<path d="M0 0 C0.74379913 -0.00111786 1.48759827 -0.00223572 2.25393677 -0.00338745 C15.41472481 0.00633653 27.93075754 1.18525251 40.5 5.375 C31.06466863 38.39865978 5.17183817 64.87386257 -23.94897461 81.63330078 C-55.35643963 98.92720385 -93.35847628 102.74117556 -127.73828125 93.1796875 C-128.64964844 92.91414063 -129.56101562 92.64859375 -130.5 92.375 C-127.04377425 68.03938308 -103.41026988 42.35655524 -84.7590332 28.15991211 C-59.72820423 9.63105858 -31.12410614 -0.06598385 0 0 Z " fill="#E4A44E" transform="translate(1775.5,1119.625)"/>
<path d="M0 0 C28.1914204 19.58804415 44.49884641 52.64986452 50.4765625 85.73828125 C50.64929687 86.81464844 50.82203125 87.89101562 51 89 C51.13148437 89.81855469 51.26296875 90.63710937 51.3984375 91.48046875 C55.59891468 124.45989091 47.40208745 161.85162187 27.1796875 188.55078125 C26.79039063 189.02902344 26.40109375 189.50726562 26 190 C3.50140514 178.19465365 -12.29474556 148.47151962 -19.75390625 125.28125 C-30.75121052 88.78749705 -28.33832337 49.41381088 -10.375 15.5 C-7.34694773 9.97940309 -4.02870321 4.85510387 0 0 Z " fill="#DD9C49" transform="translate(1506,1047)"/>
<path d="M0 0 C4.08110593 3.74400228 6.78082958 7.53297545 9.4375 12.375 C10.01890747 13.42457886 10.01890747 13.42457886 10.61206055 14.49536133 C14.37651029 21.4440936 17.34528847 28.56517907 20 36 C20.37898438 37.04285156 20.75796875 38.08570313 21.1484375 39.16015625 C32.88277775 74.05437857 28.28252541 112.62851066 12.45849609 145.34960938 C5.37990886 159.47722815 -4.2972975 171.42766173 -15.375 182.625 C-15.98230957 183.24165527 -16.58961914 183.85831055 -17.21533203 184.49365234 C-17.79138184 185.0655127 -18.36743164 185.63737305 -18.9609375 186.2265625 C-19.47446777 186.73783691 -19.98799805 187.24911133 -20.51708984 187.77587891 C-22 189 -22 189 -25 190 C-46.18600797 163.97348027 -53.77440024 126.62927151 -50.53125 93.84765625 C-46.48006252 58.81316888 -30.23709616 26.72441212 -4 3 C-2.67930524 1.98336677 -1.34917458 0.97852222 0 0 Z " fill="#B57132" transform="translate(365,1047)"/>
<path d="M0 0 C0.66 0.33 1.32 0.66 2 1 C-6.91 9.91 -15.82 18.82 -25 28 C-25.66 27.67 -26.32 27.34 -27 27 C-9.69230769 8.07692308 -9.69230769 8.07692308 0 0 Z " fill="#DEAF79" transform="translate(1166,419)"/>
<path d="M0 0 C0.66 0.33 1.32 0.66 2 1 C-5.26 8.26 -12.52 15.52 -20 23 C-20.66 22.67 -21.32 22.34 -22 22 C-6.93673978 5.53646622 -6.93673978 5.53646622 0 0 Z " fill="#CB9D73" transform="translate(246,790)"/>
<path d="M0 0 C0.66 0.33 1.32 0.66 2 1 C-4.93 7.93 -11.86 14.86 -19 22 C-19.66 21.67 -20.32 21.34 -21 21 C-14.35150847 13.52992682 -7.59684563 6.52570688 0 0 Z " fill="#EBBE83" transform="translate(1689,1149)"/>
<path d="M0 0 C0.66 0.66 1.32 1.32 2 2 C1.56171875 2.36609375 1.1234375 2.7321875 0.671875 3.109375 C-5.90446897 8.72332717 -11.93650936 14.845557 -18 21 C-18.66 20.67 -19.32 20.34 -20 20 C-7.23404255 5.85106383 -7.23404255 5.85106383 0 0 Z " fill="#CC9C70" transform="translate(365,1047)"/>
<path d="M0 0 C0.66 0.33 1.32 0.66 2 1 C-3.94 6.94 -9.88 12.88 -16 19 C-16.66 18.67 -17.32 18.34 -18 18 C-13.51609924 12.74095682 -8.9532985 7.86702244 -3.6640625 3.41015625 C-1.8974177 1.95229227 -1.8974177 1.95229227 0 0 Z " fill="#EDC084" transform="translate(1783,862)"/>
<path d="M0 0 C0.66 0.33 1.32 0.66 2 1 C-2.62 5.62 -7.24 10.24 -12 15 C-12.66 14.67 -13.32 14.34 -14 14 C-12.60919892 12.41224451 -11.21211596 10.82999061 -9.8125 9.25 C-8.64654297 7.92742187 -8.64654297 7.92742187 -7.45703125 6.578125 C-5.11544754 4.12113732 -2.69841735 2.05137234 0 0 Z " fill="#CFA277" transform="translate(425,303)"/>
<path d="M0 0 C0.66 0.33 1.32 0.66 2 1 C-1.3 4.3 -4.6 7.6 -8 11 C-8.33 10.34 -8.66 9.68 -9 9 C-6.21000549 5.51250686 -3.74764169 2.49842779 0 0 Z " fill="#E4B782" transform="translate(1388,915)"/>
<path d="M0 0 C0.66 0.33 1.32 0.66 2 1 C-0.64 3.64 -3.28 6.28 -6 9 C-6 6 -6 6 -3.5625 3.375 C-2.716875 2.59125 -1.87125 1.8075 -1 1 C-0.67 0.67 -0.34 0.34 0 0 Z " fill="#D7AC80" transform="translate(730,475)"/>
<path d="M0 0 C0.66 0 1.32 0 2 0 C0.55746343 3.36591866 -1.33264727 5.51047079 -4 8 C-4.66 7.67 -5.32 7.34 -6 7 C-5.04882866 5.8274869 -4.08882991 4.66212985 -3.125 3.5 C-2.59132812 2.8503125 -2.05765625 2.200625 -1.5078125 1.53125 C-0.76144531 0.77328125 -0.76144531 0.77328125 0 0 Z " fill="#C89970" transform="translate(152,671)"/>
</svg>
